<?xml version="1.0" standalone="no"?>
<!DOCTYPE svg PUBLIC "-//W3C//DTD SVG 20010904//EN"
 "http://www.w3.org/TR/2001/REC-SVG-20010904/DTD/svg10.dtd">
<svg version="1.0" xmlns="http://www.w3.org/2000/svg"
 width="300.000000pt" height="299.000000pt" viewBox="0 0 300.000000 299.000000"
 preserveAspectRatio="xMidYMid meet">
<metadata>
Created by potrace 1.10, written by Peter Selinger 2001-2011
</metadata>
<g transform="translate(0.000000,299.000000) scale(0.100000,-0.100000)"
fill="#000000" stroke="none">
<path d="M1946 2912 c-3 -5 26 -43 65 -86 38 -42 68 -80 68 -84 -1 -4 -43 -46
-94 -94 l-93 -88 -73 26 c-197 68 -442 91 -631 60 -514 -85 -936 -462 -1063
-953 -68 -260 -57 -541 30 -783 130 -358 402 -635 765 -778 136 -54 246 -74
430 -79 150 -4 189 -2 275 16 138 28 212 53 341 116 311 151 544 422 658 766
93 279 86 607 -17 864 l-34 84 87 86 c48 47 91 85 96 85 5 0 29 -21 54 -46 50
-50 108 -90 117 -80 7 6 -14 796 -23 902 l-5 61 -352 6 c-463 9 -595 9 -601
-1z m780 -48 l132 -6 7 -161 c13 -318 23 -672 19 -676 -3 -3 -33 23 -67 57
l-62 62 -117 -118 -118 -117 29 -60 c117 -244 131 -576 39 -865 -108 -339
-365 -635 -672 -775 -337 -154 -734 -152 -1062 4 -193 92 -364 231 -486 396
-71 95 -169 291 -198 395 -96 349 -49 703 137 1016 76 128 247 306 377 390
157 101 344 171 523 195 110 15 352 6 451 -16 63 -14 172 -48 222 -69 15 -6
81 46 213 172 l59 55 -61 61 c-34 34 -61 64 -61 68 0 7 477 1 696 -8z"/>
</g>
</svg>
