<?xml version="1.0" encoding="utf-8"?>
<!-- Generator: Adobe Illustrator 24.3.0, SVG Export Plug-In . SVG Version: 6.00 Build 0)  -->
<svg version="1.1" id="Layer_1" xmlns="http://www.w3.org/2000/svg" xmlns:xlink="http://www.w3.org/1999/xlink" x="0px" y="0px"
	 viewBox="0 0 1920 469" style="enable-background:new 0 0 1920 469;" xml:space="preserve">
<style type="text/css">
	.st0{fill:url(#SVGID_1_);}
	.st1{opacity:0.2;fill:#0B0244;}
	.st2{opacity:0.2;}
	.st3{fill:#5761D7;}
	.st4{opacity:0.1;fill:#5761D7;}
	.st5{opacity:0.4;fill:#5761D7;}
	.st6{opacity:0.4;fill:#0B0244;}
	.st7{fill:#24126A;}
	.st8{fill:url(#SVGID_2_);}
	.st9{fill:url(#SVGID_3_);}
	.st10{fill:url(#SVGID_4_);}
	.st11{fill:#FFFFFF;}
	.st12{fill:#FCD1C5;}
	.st13{fill:#160A5B;}
	.st14{fill:#E2B1A6;}
	.st15{fill:#4846A5;}
	.st16{fill:#453C9E;}
	.st17{fill:#AA8383;}
	.st18{fill:#936D6D;}
	.st19{fill:#F0F6FF;}
	.st20{fill:#C4CCD6;}
</style>
<g>
	
		<radialGradient id="SVGID_1_" cx="653.1118" cy="-215.9756" r="1009.7343" fx="-299.1097" fy="-551.8887" gradientTransform="matrix(3.2 0 0 1.0422 -1210.6666 -182.9589)" gradientUnits="userSpaceOnUse">
		<stop  offset="0" style="stop-color:#2B237C"/>
		<stop  offset="1" style="stop-color:#180D5B"/>
	</radialGradient>
	<rect class="st0" width="1920" height="469"/>
</g>
<ellipse class="st1" cx="1593.32" cy="352.89" rx="38.39" ry="22.16"/>
<g class="st2">
	<g>
		<g>
			<polygon class="st3" points="1162.81,314.14 1154.74,309.48 1162.81,304.82 1170.89,309.48 			"/>
			<polygon class="st4" points="1178.96,323.47 1170.89,318.8 1178.96,314.14 1187.04,318.8 			"/>
			<polygon class="st5" points="1195.12,332.79 1187.04,328.13 1195.12,323.47 1203.19,328.13 			"/>
			<polygon class="st3" points="1211.27,342.12 1203.19,337.45 1211.27,332.79 1219.34,337.45 			"/>
			<polygon class="st5" points="1227.42,351.44 1219.34,346.78 1227.42,342.12 1235.5,346.78 			"/>
			<polygon class="st3" points="1243.57,360.77 1235.5,356.11 1243.57,351.44 1251.65,356.11 			"/>
			<polygon class="st3" points="1259.72,370.09 1251.65,365.43 1259.72,360.77 1267.8,365.43 			"/>
			<polygon class="st3" points="1275.88,379.42 1267.8,374.76 1275.88,370.09 1283.95,374.76 			"/>
			<polygon class="st4" points="1292.03,388.74 1283.95,384.08 1292.03,379.42 1300.1,384.08 			"/>
		</g>
		<g>
			<polygon class="st3" points="1146.59,323.5 1138.52,318.84 1146.59,314.18 1154.67,318.84 			"/>
			<polygon class="st3" points="1162.75,332.83 1154.67,328.17 1162.75,323.5 1170.82,328.17 			"/>
			<polygon class="st3" points="1178.9,342.15 1170.82,337.49 1178.9,332.83 1186.97,337.49 			"/>
			<polygon class="st3" points="1195.05,351.48 1186.97,346.82 1195.05,342.15 1203.13,346.82 			"/>
			<polygon class="st3" points="1211.2,360.81 1203.13,356.14 1211.2,351.48 1219.28,356.14 			"/>
			<polygon class="st3" points="1227.35,370.13 1219.28,365.47 1227.35,360.81 1235.43,365.47 			"/>
			<polygon class="st3" points="1243.51,379.46 1235.43,374.79 1243.51,370.13 1251.58,374.79 			"/>
			<polygon class="st3" points="1259.66,388.78 1251.58,384.12 1259.66,379.46 1267.73,384.12 			"/>
			<polygon class="st3" points="1275.81,398.11 1267.73,393.44 1275.81,388.78 1283.89,393.44 			"/>
		</g>
		<g>
			<polygon class="st3" points="1130.38,332.87 1122.3,328.2 1130.38,323.54 1138.45,328.2 			"/>
			<polygon class="st3" points="1146.53,342.19 1138.45,337.53 1146.53,332.87 1154.6,337.53 			"/>
			<polygon class="st3" points="1162.68,351.52 1154.6,346.86 1162.68,342.19 1170.76,346.86 			"/>
			<polygon class="st4" points="1178.83,360.84 1170.76,356.18 1178.83,351.52 1186.91,356.18 			"/>
			<polygon class="st5" points="1194.98,370.17 1186.91,365.51 1194.98,360.84 1203.06,365.51 			"/>
			<polygon class="st5" points="1211.14,379.49 1203.06,374.83 1211.14,370.17 1219.21,374.83 			"/>
			<polygon class="st3" points="1227.29,388.82 1219.21,384.16 1227.29,379.49 1235.36,384.16 			"/>
			<polygon class="st3" points="1243.44,398.15 1235.37,393.48 1243.44,388.82 1251.52,393.48 			"/>
			<polygon class="st3" points="1259.59,407.47 1251.52,402.81 1259.59,398.15 1267.67,402.81 			"/>
		</g>
		<g>
			<polygon class="st5" points="1114.16,342.23 1106.08,337.57 1114.16,332.91 1122.23,337.57 			"/>
			<polygon class="st5" points="1130.31,351.56 1122.24,346.89 1130.31,342.23 1138.39,346.89 			"/>
			<polygon class="st4" points="1146.46,360.88 1138.39,356.22 1146.46,351.56 1154.54,356.22 			"/>
			<polygon class="st3" points="1162.62,370.21 1154.54,365.54 1162.62,360.88 1170.69,365.54 			"/>
			<polygon class="st3" points="1178.77,379.53 1170.69,374.87 1178.77,370.21 1186.84,374.87 			"/>
			<polygon class="st3" points="1194.92,388.86 1186.84,384.19 1194.92,379.53 1203,384.19 			"/>
			<polygon class="st5" points="1211.07,398.18 1203,393.52 1211.07,388.86 1219.15,393.52 			"/>
			<polygon class="st3" points="1227.22,407.51 1219.15,402.85 1227.22,398.18 1235.3,402.85 			"/>
			<polygon class="st3" points="1243.38,416.83 1235.3,412.17 1243.38,407.51 1251.45,412.17 			"/>
		</g>
		<g>
			<polygon class="st3" points="1097.94,351.59 1089.87,346.93 1097.94,342.27 1106.02,346.93 			"/>
			<polygon class="st3" points="1114.09,360.92 1106.02,356.26 1114.09,351.59 1122.17,356.26 			"/>
			<polygon class="st3" points="1130.25,370.24 1122.17,365.58 1130.25,360.92 1138.32,365.58 			"/>
			<polygon class="st3" points="1146.4,379.57 1138.32,374.91 1146.4,370.24 1154.47,374.91 			"/>
			<polygon class="st3" points="1162.55,388.9 1154.47,384.23 1162.55,379.57 1170.63,384.23 			"/>
			<polygon class="st3" points="1178.7,398.22 1170.63,393.56 1178.7,388.9 1186.78,393.56 			"/>
			<polygon class="st3" points="1194.85,407.55 1186.78,402.88 1194.85,398.22 1202.93,402.88 			"/>
			<polygon class="st3" points="1211.01,416.87 1202.93,412.21 1211.01,407.55 1219.08,412.21 			"/>
			<polygon class="st3" points="1227.16,426.2 1219.08,421.53 1227.16,416.87 1235.23,421.53 			"/>
		</g>
		<g>
			<polygon class="st3" points="1081.72,360.96 1073.65,356.29 1081.72,351.63 1089.8,356.29 			"/>
			<polygon class="st3" points="1097.88,370.28 1089.8,365.62 1097.88,360.96 1105.95,365.62 			"/>
			<polygon class="st5" points="1114.03,379.61 1105.95,374.94 1114.03,370.28 1122.1,374.94 			"/>
			<polygon class="st3" points="1130.18,388.93 1122.1,384.27 1130.18,379.61 1138.26,384.27 			"/>
			<polygon class="st4" points="1146.33,398.26 1138.26,393.6 1146.33,388.93 1154.41,393.6 			"/>
			<polygon class="st3" points="1162.48,407.58 1154.41,402.92 1162.48,398.26 1170.56,402.92 			"/>
			<polygon class="st3" points="1178.64,416.91 1170.56,412.25 1178.64,407.58 1186.71,412.25 			"/>
			<polygon class="st3" points="1194.79,426.23 1186.71,421.57 1194.79,416.91 1202.86,421.57 			"/>
			<polygon class="st3" points="1210.94,435.56 1202.86,430.9 1210.94,426.23 1219.02,430.9 			"/>
		</g>
		<g>
			<polygon class="st3" points="1065.51,370.32 1057.43,365.66 1065.51,360.99 1073.58,365.66 			"/>
			<polygon class="st3" points="1081.66,379.65 1073.58,374.98 1081.66,370.32 1089.73,374.98 			"/>
			<polygon class="st5" points="1097.81,388.97 1089.73,384.31 1097.81,379.65 1105.89,384.31 			"/>
			<polygon class="st3" points="1113.96,398.3 1105.89,393.63 1113.96,388.97 1122.04,393.63 			"/>
			<polygon class="st3" points="1130.11,407.62 1122.04,402.96 1130.11,398.3 1138.19,402.96 			"/>
			<polygon class="st4" points="1146.27,416.95 1138.19,412.28 1146.27,407.62 1154.34,412.28 			"/>
			<polygon class="st5" points="1162.42,426.27 1154.34,421.61 1162.42,416.95 1170.5,421.61 			"/>
			<polygon class="st3" points="1178.57,435.6 1170.5,430.94 1178.57,426.27 1186.65,430.94 			"/>
			<polygon class="st4" points="1194.72,444.92 1186.65,440.26 1194.72,435.6 1202.8,440.26 			"/>
		</g>
		<g>
			<polygon class="st3" points="1049.29,379.68 1041.21,375.02 1049.29,370.36 1057.37,375.02 			"/>
			<polygon class="st5" points="1065.44,389.01 1057.37,384.35 1065.44,379.68 1073.52,384.35 			"/>
			<polygon class="st3" points="1081.59,398.33 1073.52,393.67 1081.59,389.01 1089.67,393.67 			"/>
			<polygon class="st3" points="1097.75,407.66 1089.67,403 1097.75,398.33 1105.82,403 			"/>
			<polygon class="st3" points="1113.9,416.98 1105.82,412.32 1113.9,407.66 1121.97,412.32 			"/>
			<polygon class="st3" points="1130.05,426.31 1121.97,421.65 1130.05,416.98 1138.13,421.65 			"/>
			<polygon class="st3" points="1146.2,435.64 1138.13,430.97 1146.2,426.31 1154.28,430.97 			"/>
			<polygon class="st5" points="1162.35,444.96 1154.28,440.3 1162.35,435.64 1170.43,440.3 			"/>
			<polygon class="st3" points="1178.51,454.29 1170.43,449.62 1178.51,444.96 1186.58,449.62 			"/>
		</g>
		<g>
			<polygon class="st3" points="1033.07,389.05 1025,384.38 1033.07,379.72 1041.15,384.38 			"/>
			<polygon class="st4" points="1049.22,398.37 1041.15,393.71 1049.22,389.05 1057.3,393.71 			"/>
			<polygon class="st3" points="1065.38,407.7 1057.3,403.03 1065.38,398.37 1073.45,403.03 			"/>
			<polygon class="st3" points="1081.53,417.02 1073.45,412.36 1081.53,407.7 1089.6,412.36 			"/>
			<polygon class="st3" points="1097.68,426.35 1089.6,421.69 1097.68,417.02 1105.76,421.69 			"/>
			<polygon class="st3" points="1113.83,435.67 1105.76,431.01 1113.83,426.35 1121.91,431.01 			"/>
			<polygon class="st5" points="1129.98,445 1121.91,440.34 1129.98,435.67 1138.06,440.34 			"/>
			<polygon class="st3" points="1146.14,454.32 1138.06,449.66 1146.14,445 1154.21,449.66 			"/>
			<polygon class="st3" points="1162.29,463.65 1154.21,458.99 1162.29,454.32 1170.36,458.99 			"/>
		</g>
	</g>
	<g>
		<g>
			<polygon class="st3" points="1449.95,314.14 1441.87,309.48 1449.95,304.82 1458.03,309.48 			"/>
			<polygon class="st4" points="1466.1,323.47 1458.03,318.8 1466.1,314.14 1474.18,318.8 			"/>
			<polygon class="st5" points="1482.25,332.79 1474.18,328.13 1482.25,323.47 1490.33,328.13 			"/>
			<polygon class="st3" points="1498.41,342.12 1490.33,337.45 1498.41,332.79 1506.48,337.45 			"/>
			<polygon class="st5" points="1514.56,351.44 1506.48,346.78 1514.56,342.12 1522.63,346.78 			"/>
			<polygon class="st3" points="1530.71,360.77 1522.63,356.11 1530.71,351.44 1538.79,356.11 			"/>
			<polygon class="st3" points="1546.86,370.09 1538.79,365.43 1546.86,360.77 1554.94,365.43 			"/>
			<polygon class="st3" points="1563.01,379.42 1554.94,374.76 1563.01,370.09 1571.09,374.76 			"/>
			<polygon class="st4" points="1579.17,388.74 1571.09,384.08 1579.17,379.42 1587.24,384.08 			"/>
		</g>
		<g>
			<polygon class="st3" points="1433.73,323.5 1425.66,318.84 1433.73,314.18 1441.81,318.84 			"/>
			<polygon class="st3" points="1449.88,332.83 1441.81,328.17 1449.88,323.5 1457.96,328.17 			"/>
			<polygon class="st3" points="1466.04,342.15 1457.96,337.49 1466.04,332.83 1474.11,337.49 			"/>
			<polygon class="st3" points="1482.19,351.48 1474.11,346.82 1482.19,342.15 1490.26,346.82 			"/>
			<polygon class="st3" points="1498.34,360.81 1490.26,356.14 1498.34,351.48 1506.42,356.14 			"/>
			<polygon class="st3" points="1514.49,370.13 1506.42,365.47 1514.49,360.81 1522.57,365.47 			"/>
			<polygon class="st3" points="1530.64,379.46 1522.57,374.79 1530.64,370.13 1538.72,374.79 			"/>
			<polygon class="st3" points="1546.8,388.78 1538.72,384.12 1546.8,379.46 1554.87,384.12 			"/>
			<polygon class="st3" points="1562.95,398.11 1554.87,393.44 1562.95,388.78 1571.02,393.44 			"/>
		</g>
		<g>
			<polygon class="st3" points="1417.51,332.87 1409.44,328.2 1417.51,323.54 1425.59,328.2 			"/>
			<polygon class="st3" points="1433.67,342.19 1425.59,337.53 1433.67,332.87 1441.74,337.53 			"/>
			<polygon class="st3" points="1449.82,351.52 1441.74,346.86 1449.82,342.19 1457.89,346.86 			"/>
			<polygon class="st4" points="1465.97,360.84 1457.89,356.18 1465.97,351.52 1474.05,356.18 			"/>
			<polygon class="st5" points="1482.12,370.17 1474.05,365.51 1482.12,360.84 1490.2,365.51 			"/>
			<polygon class="st5" points="1498.27,379.49 1490.2,374.83 1498.27,370.17 1506.35,374.83 			"/>
			<polygon class="st3" points="1514.43,388.82 1506.35,384.16 1514.43,379.49 1522.5,384.16 			"/>
			<polygon class="st3" points="1530.58,398.15 1522.5,393.48 1530.58,388.82 1538.65,393.48 			"/>
			<polygon class="st3" points="1546.73,407.47 1538.66,402.81 1546.73,398.15 1554.81,402.81 			"/>
		</g>
		<g>
			<polygon class="st5" points="1401.3,342.23 1393.22,337.57 1401.3,332.91 1409.37,337.57 			"/>
			<polygon class="st5" points="1417.45,351.56 1409.37,346.89 1417.45,342.23 1425.52,346.89 			"/>
			<polygon class="st4" points="1433.6,360.88 1425.53,356.22 1433.6,351.56 1441.68,356.22 			"/>
			<polygon class="st3" points="1449.75,370.21 1441.68,365.54 1449.75,360.88 1457.83,365.54 			"/>
			<polygon class="st3" points="1465.91,379.53 1457.83,374.87 1465.91,370.21 1473.98,374.87 			"/>
			<polygon class="st3" points="1482.06,388.86 1473.98,384.19 1482.06,379.53 1490.13,384.19 			"/>
			<polygon class="st5" points="1498.21,398.18 1490.13,393.52 1498.21,388.86 1506.29,393.52 			"/>
			<polygon class="st3" points="1514.36,407.51 1506.29,402.85 1514.36,398.18 1522.44,402.85 			"/>
			<polygon class="st3" points="1530.51,416.83 1522.44,412.17 1530.51,407.51 1538.59,412.17 			"/>
		</g>
		<g>
			<polygon class="st3" points="1385.08,351.59 1377,346.93 1385.08,342.27 1393.16,346.93 			"/>
			<polygon class="st3" points="1401.23,360.92 1393.16,356.26 1401.23,351.59 1409.31,356.26 			"/>
			<polygon class="st3" points="1417.38,370.24 1409.31,365.58 1417.38,360.92 1425.46,365.58 			"/>
			<polygon class="st3" points="1433.54,379.57 1425.46,374.91 1433.54,370.24 1441.61,374.91 			"/>
			<polygon class="st3" points="1449.69,388.9 1441.61,384.23 1449.69,379.57 1457.76,384.23 			"/>
			<polygon class="st3" points="1465.84,398.22 1457.76,393.56 1465.84,388.9 1473.92,393.56 			"/>
			<polygon class="st3" points="1481.99,407.55 1473.92,402.88 1481.99,398.22 1490.07,402.88 			"/>
			<polygon class="st3" points="1498.14,416.87 1490.07,412.21 1498.14,407.55 1506.22,412.21 			"/>
			<polygon class="st3" points="1514.3,426.2 1506.22,421.53 1514.3,416.87 1522.37,421.53 			"/>
		</g>
		<g>
			<polygon class="st3" points="1368.86,360.96 1360.79,356.29 1368.86,351.63 1376.94,356.29 			"/>
			<polygon class="st3" points="1385.01,370.28 1376.94,365.62 1385.01,360.96 1393.09,365.62 			"/>
			<polygon class="st5" points="1401.17,379.61 1393.09,374.94 1401.17,370.28 1409.24,374.94 			"/>
			<polygon class="st3" points="1417.32,388.93 1409.24,384.27 1417.32,379.61 1425.39,384.27 			"/>
			<polygon class="st4" points="1433.47,398.26 1425.39,393.6 1433.47,388.93 1441.55,393.6 			"/>
			<polygon class="st3" points="1449.62,407.58 1441.55,402.92 1449.62,398.26 1457.7,402.92 			"/>
			<polygon class="st3" points="1465.77,416.91 1457.7,412.25 1465.77,407.58 1473.85,412.25 			"/>
			<polygon class="st3" points="1481.93,426.23 1473.85,421.57 1481.93,416.91 1490,421.57 			"/>
			<polygon class="st3" points="1498.08,435.56 1490,430.9 1498.08,426.23 1506.15,430.9 			"/>
		</g>
		<g>
			<polygon class="st3" points="1352.64,370.32 1344.57,365.66 1352.64,360.99 1360.72,365.66 			"/>
			<polygon class="st3" points="1368.8,379.65 1360.72,374.98 1368.8,370.32 1376.87,374.98 			"/>
			<polygon class="st5" points="1384.95,388.97 1376.87,384.31 1384.95,379.65 1393.02,384.31 			"/>
			<polygon class="st3" points="1401.1,398.3 1393.02,393.63 1401.1,388.97 1409.18,393.63 			"/>
			<polygon class="st3" points="1417.25,407.62 1409.18,402.96 1417.25,398.3 1425.33,402.96 			"/>
			<polygon class="st4" points="1433.41,416.95 1425.33,412.28 1433.4,407.62 1441.48,412.28 			"/>
			<polygon class="st5" points="1449.56,426.27 1441.48,421.61 1449.56,416.95 1457.63,421.61 			"/>
			<polygon class="st3" points="1465.71,435.6 1457.63,430.94 1465.71,426.27 1473.78,430.94 			"/>
			<polygon class="st4" points="1481.86,444.92 1473.79,440.26 1481.86,435.6 1489.94,440.26 			"/>
		</g>
		<g>
			<polygon class="st3" points="1336.43,379.68 1328.35,375.02 1336.43,370.36 1344.5,375.02 			"/>
			<polygon class="st5" points="1352.58,389.01 1344.5,384.35 1352.58,379.68 1360.66,384.35 			"/>
			<polygon class="st3" points="1368.73,398.33 1360.66,393.67 1368.73,389.01 1376.81,393.67 			"/>
			<polygon class="st3" points="1384.88,407.66 1376.81,403 1384.88,398.33 1392.96,403 			"/>
			<polygon class="st3" points="1401.04,416.98 1392.96,412.32 1401.04,407.66 1409.11,412.32 			"/>
			<polygon class="st3" points="1417.19,426.31 1409.11,421.65 1417.19,416.98 1425.26,421.65 			"/>
			<polygon class="st3" points="1433.34,435.64 1425.26,430.97 1433.34,426.31 1441.42,430.97 			"/>
			<polygon class="st5" points="1449.49,444.96 1441.42,440.3 1449.49,435.64 1457.57,440.3 			"/>
			<polygon class="st3" points="1465.64,454.29 1457.57,449.62 1465.64,444.96 1473.72,449.62 			"/>
		</g>
		<g>
			<polygon class="st3" points="1320.21,389.05 1312.13,384.38 1320.21,379.72 1328.29,384.38 			"/>
			<polygon class="st4" points="1336.36,398.37 1328.29,393.71 1336.36,389.05 1344.44,393.71 			"/>
			<polygon class="st3" points="1352.51,407.7 1344.44,403.03 1352.51,398.37 1360.59,403.03 			"/>
			<polygon class="st3" points="1368.67,417.02 1360.59,412.36 1368.67,407.7 1376.74,412.36 			"/>
			<polygon class="st3" points="1384.82,426.35 1376.74,421.69 1384.82,417.02 1392.89,421.69 			"/>
			<polygon class="st3" points="1400.97,435.67 1392.89,431.01 1400.97,426.35 1409.05,431.01 			"/>
			<polygon class="st5" points="1417.12,445 1409.05,440.34 1417.12,435.67 1425.2,440.34 			"/>
			<polygon class="st3" points="1433.27,454.32 1425.2,449.66 1433.27,445 1441.35,449.66 			"/>
			<polygon class="st3" points="1449.43,463.65 1441.35,458.99 1449.43,454.32 1457.5,458.99 			"/>
		</g>
	</g>
	<g>
		<g>
			<polygon class="st3" points="1306.73,229.91 1298.66,225.25 1306.73,220.58 1314.81,225.25 			"/>
			<polygon class="st4" points="1322.89,239.24 1314.81,234.57 1322.88,229.91 1330.96,234.57 			"/>
			<polygon class="st5" points="1339.04,248.56 1330.96,243.9 1339.04,239.24 1347.11,243.9 			"/>
			<polygon class="st3" points="1355.19,257.89 1347.11,253.22 1355.19,248.56 1363.27,253.22 			"/>
			<polygon class="st5" points="1371.34,267.21 1363.27,262.55 1371.34,257.89 1379.42,262.55 			"/>
			<polygon class="st3" points="1387.49,276.54 1379.42,271.87 1387.49,267.21 1395.57,271.87 			"/>
			<polygon class="st3" points="1403.65,285.86 1395.57,281.2 1403.65,276.54 1411.72,281.2 			"/>
			<polygon class="st3" points="1419.8,295.19 1411.72,290.53 1419.8,285.86 1427.87,290.53 			"/>
			<polygon class="st4" points="1435.95,304.51 1427.87,299.85 1435.95,295.19 1444.03,299.85 			"/>
		</g>
		<g>
			<polygon class="st3" points="1290.52,239.27 1282.44,234.61 1290.52,229.95 1298.59,234.61 			"/>
			<polygon class="st3" points="1306.67,248.6 1298.59,243.94 1306.67,239.27 1314.74,243.94 			"/>
			<polygon class="st3" points="1322.82,257.92 1314.74,253.26 1322.82,248.6 1330.9,253.26 			"/>
			<polygon class="st3" points="1338.97,267.25 1330.9,262.59 1338.97,257.92 1347.05,262.59 			"/>
			<polygon class="st3" points="1355.12,276.58 1347.05,271.91 1355.12,267.25 1363.2,271.91 			"/>
			<polygon class="st3" points="1371.28,285.9 1363.2,281.24 1371.28,276.58 1379.35,281.24 			"/>
			<polygon class="st3" points="1387.43,295.23 1379.35,290.56 1387.43,285.9 1395.5,290.56 			"/>
			<polygon class="st3" points="1403.58,304.55 1395.5,299.89 1403.58,295.23 1411.66,299.89 			"/>
			<polygon class="st3" points="1419.73,313.88 1411.66,309.21 1419.73,304.55 1427.81,309.21 			"/>
		</g>
		<g>
			<polygon class="st3" points="1274.3,248.64 1266.22,243.97 1274.3,239.31 1282.37,243.97 			"/>
			<polygon class="st3" points="1290.45,257.96 1282.37,253.3 1290.45,248.64 1298.53,253.3 			"/>
			<polygon class="st3" points="1306.6,267.29 1298.53,262.62 1306.6,257.96 1314.68,262.62 			"/>
			<polygon class="st4" points="1322.75,276.61 1314.68,271.95 1322.75,267.29 1330.83,271.95 			"/>
			<polygon class="st5" points="1338.91,285.94 1330.83,281.28 1338.91,276.61 1346.98,281.28 			"/>
			<polygon class="st5" points="1355.06,295.26 1346.98,290.6 1355.06,285.94 1363.13,290.6 			"/>
			<polygon class="st3" points="1371.21,304.59 1363.13,299.93 1371.21,295.26 1379.29,299.93 			"/>
			<polygon class="st3" points="1387.36,313.91 1379.29,309.25 1387.36,304.59 1395.44,309.25 			"/>
			<polygon class="st3" points="1403.51,323.24 1395.44,318.58 1403.51,313.91 1411.59,318.58 			"/>
		</g>
		<g>
			<polygon class="st5" points="1258.08,258 1250,253.34 1258.08,248.67 1266.16,253.34 			"/>
			<polygon class="st5" points="1274.23,267.33 1266.16,262.66 1274.23,258 1282.31,262.66 			"/>
			<polygon class="st4" points="1290.38,276.65 1282.31,271.99 1290.38,267.33 1298.46,271.99 			"/>
			<polygon class="st3" points="1306.54,285.98 1298.46,281.31 1306.54,276.65 1314.61,281.31 			"/>
			<polygon class="st3" points="1322.69,295.3 1314.61,290.64 1322.69,285.98 1330.76,290.64 			"/>
			<polygon class="st3" points="1338.84,304.63 1330.77,299.96 1338.84,295.3 1346.92,299.96 			"/>
			<polygon class="st5" points="1354.99,313.95 1346.92,309.29 1354.99,304.63 1363.07,309.29 			"/>
			<polygon class="st3" points="1371.15,323.28 1363.07,318.61 1371.15,313.95 1379.22,318.62 			"/>
			<polygon class="st3" points="1387.3,332.6 1379.22,327.94 1387.3,323.28 1395.37,327.94 			"/>
		</g>
		<g>
			<polygon class="st3" points="1241.86,267.36 1233.79,262.7 1241.86,258.04 1249.94,262.7 			"/>
			<polygon class="st3" points="1258.02,276.69 1249.94,272.03 1258.02,267.36 1266.09,272.03 			"/>
			<polygon class="st3" points="1274.17,286.01 1266.09,281.35 1274.17,276.69 1282.24,281.35 			"/>
			<polygon class="st3" points="1290.32,295.34 1282.24,290.68 1290.32,286.01 1298.4,290.68 			"/>
			<polygon class="st3" points="1306.47,304.66 1298.4,300 1306.47,295.34 1314.55,300 			"/>
			<polygon class="st3" points="1322.62,313.99 1314.55,309.33 1322.62,304.66 1330.7,309.33 			"/>
			<polygon class="st3" points="1338.78,323.32 1330.7,318.65 1338.78,313.99 1346.85,318.65 			"/>
			<polygon class="st3" points="1354.93,332.64 1346.85,327.98 1354.93,323.32 1363,327.98 			"/>
			<polygon class="st3" points="1371.08,341.97 1363,337.3 1371.08,332.64 1379.16,337.3 			"/>
		</g>
		<g>
			<polygon class="st3" points="1225.65,276.73 1217.57,272.06 1225.65,267.4 1233.72,272.06 			"/>
			<polygon class="st3" points="1241.8,286.05 1233.72,281.39 1241.8,276.73 1249.87,281.39 			"/>
			<polygon class="st5" points="1257.95,295.38 1249.87,290.71 1257.95,286.05 1266.03,290.71 			"/>
			<polygon class="st3" points="1274.1,304.7 1266.03,300.04 1274.1,295.38 1282.18,300.04 			"/>
			<polygon class="st4" points="1290.25,314.03 1282.18,309.36 1290.25,304.7 1298.33,309.37 			"/>
			<polygon class="st3" points="1306.41,323.35 1298.33,318.69 1306.41,314.03 1314.48,318.69 			"/>
			<polygon class="st3" points="1322.56,332.68 1314.48,328.02 1322.56,323.35 1330.63,328.02 			"/>
			<polygon class="st3" points="1338.71,342 1330.63,337.34 1338.71,332.68 1346.79,337.34 			"/>
			<polygon class="st3" points="1354.86,351.33 1346.79,346.67 1354.86,342 1362.94,346.67 			"/>
		</g>
		<g>
			<polygon class="st3" points="1209.43,286.09 1201.35,281.43 1209.43,276.76 1217.5,281.43 			"/>
			<polygon class="st3" points="1225.58,295.41 1217.5,290.75 1225.58,286.09 1233.66,290.75 			"/>
			<polygon class="st5" points="1241.73,304.74 1233.66,300.08 1241.73,295.41 1249.81,300.08 			"/>
			<polygon class="st3" points="1257.88,314.07 1249.81,309.4 1257.88,304.74 1265.96,309.4 			"/>
			<polygon class="st3" points="1274.04,323.39 1265.96,318.73 1274.04,314.07 1282.11,318.73 			"/>
			<polygon class="st4" points="1290.19,332.72 1282.11,328.05 1290.19,323.39 1298.26,328.05 			"/>
			<polygon class="st5" points="1306.34,342.04 1298.26,337.38 1306.34,332.72 1314.42,337.38 			"/>
			<polygon class="st3" points="1322.49,351.37 1314.42,346.7 1322.49,342.04 1330.57,346.7 			"/>
			<polygon class="st4" points="1338.64,360.69 1330.57,356.03 1338.64,351.37 1346.72,356.03 			"/>
		</g>
		<g>
			<polygon class="st3" points="1193.21,295.45 1185.13,290.79 1193.21,286.13 1201.29,290.79 			"/>
			<polygon class="st5" points="1209.36,304.78 1201.29,300.12 1209.36,295.45 1217.44,300.12 			"/>
			<polygon class="st3" points="1225.52,314.1 1217.44,309.44 1225.51,304.78 1233.59,309.44 			"/>
			<polygon class="st3" points="1241.67,323.43 1233.59,318.77 1241.67,314.1 1249.74,318.77 			"/>
			<polygon class="st3" points="1257.82,332.75 1249.74,328.09 1257.82,323.43 1265.89,328.09 			"/>
			<polygon class="st3" points="1273.97,342.08 1265.9,337.42 1273.97,332.75 1282.05,337.42 			"/>
			<polygon class="st3" points="1290.12,351.4 1282.05,346.74 1290.12,342.08 1298.2,346.74 			"/>
			<polygon class="st5" points="1306.28,360.73 1298.2,356.07 1306.28,351.4 1314.35,356.07 			"/>
			<polygon class="st3" points="1322.43,370.06 1314.35,365.39 1322.43,360.73 1330.5,365.39 			"/>
		</g>
		<g>
			<polygon class="st3" points="1176.99,304.82 1168.92,300.15 1176.99,295.49 1185.07,300.15 			"/>
			<polygon class="st4" points="1193.15,314.14 1185.07,309.48 1193.15,304.82 1201.22,309.48 			"/>
			<polygon class="st3" points="1209.3,323.47 1201.22,318.8 1209.3,314.14 1217.37,318.8 			"/>
			<polygon class="st3" points="1225.45,332.79 1217.37,328.13 1225.45,323.47 1233.53,328.13 			"/>
			<polygon class="st3" points="1241.6,342.12 1233.53,337.45 1241.6,332.79 1249.68,337.45 			"/>
			<polygon class="st3" points="1257.75,351.44 1249.68,346.78 1257.75,342.12 1265.83,346.78 			"/>
			<polygon class="st5" points="1273.91,360.77 1265.83,356.11 1273.91,351.44 1281.98,356.11 			"/>
			<polygon class="st3" points="1290.06,370.09 1281.98,365.43 1290.06,360.77 1298.13,365.43 			"/>
			<polygon class="st3" points="1306.21,379.42 1298.13,374.76 1306.21,370.09 1314.29,374.76 			"/>
		</g>
	</g>
	<g>
		<g>
			<polygon class="st3" points="1306.73,398.07 1298.66,393.41 1306.73,388.74 1314.81,393.41 			"/>
			<polygon class="st4" points="1322.89,407.39 1314.81,402.73 1322.88,398.07 1330.96,402.73 			"/>
			<polygon class="st5" points="1339.04,416.72 1330.96,412.06 1339.04,407.39 1347.11,412.06 			"/>
			<polygon class="st3" points="1355.19,426.05 1347.11,421.38 1355.19,416.72 1363.27,421.38 			"/>
			<polygon class="st5" points="1371.34,435.37 1363.27,430.71 1371.34,426.05 1379.42,430.71 			"/>
			<polygon class="st3" points="1387.49,444.7 1379.42,440.03 1387.49,435.37 1395.57,440.03 			"/>
			<polygon class="st3" points="1403.65,454.02 1395.57,449.36 1403.65,444.7 1411.72,449.36 			"/>
			<polygon class="st3" points="1419.8,463.35 1411.72,458.68 1419.8,454.02 1427.87,458.68 			"/>
			<polygon class="st4" points="1435.95,472.67 1427.87,468.01 1435.95,463.35 1444.03,468.01 			"/>
		</g>
		<g>
			<polygon class="st3" points="1290.52,407.43 1282.44,402.77 1290.52,398.11 1298.59,402.77 			"/>
			<polygon class="st3" points="1306.67,416.76 1298.59,412.1 1306.67,407.43 1314.74,412.1 			"/>
			<polygon class="st3" points="1322.82,426.08 1314.74,421.42 1322.82,416.76 1330.9,421.42 			"/>
			<polygon class="st3" points="1338.97,435.41 1330.9,430.75 1338.97,426.08 1347.05,430.75 			"/>
			<polygon class="st3" points="1355.12,444.73 1347.05,440.07 1355.12,435.41 1363.2,440.07 			"/>
			<polygon class="st3" points="1371.28,454.06 1363.2,449.4 1371.28,444.73 1379.35,449.4 			"/>
			<polygon class="st3" points="1387.43,463.39 1379.35,458.72 1387.43,454.06 1395.5,458.72 			"/>
			<polygon class="st3" points="1403.58,472.71 1395.5,468.05 1403.58,463.39 1411.66,468.05 			"/>
			<polygon class="st3" points="1419.73,482.04 1411.66,477.37 1419.73,472.71 1427.81,477.37 			"/>
		</g>
		<g>
			<polygon class="st3" points="1274.3,416.8 1266.22,412.13 1274.3,407.47 1282.37,412.13 			"/>
			<polygon class="st3" points="1290.45,426.12 1282.37,421.46 1290.45,416.8 1298.53,421.46 			"/>
			<polygon class="st3" points="1306.6,435.45 1298.53,430.78 1306.6,426.12 1314.68,430.78 			"/>
			<polygon class="st4" points="1322.75,444.77 1314.68,440.11 1322.75,435.45 1330.83,440.11 			"/>
			<polygon class="st5" points="1338.91,454.1 1330.83,449.43 1338.91,444.77 1346.98,449.43 			"/>
			<polygon class="st5" points="1355.06,463.42 1346.98,458.76 1355.06,454.1 1363.13,458.76 			"/>
			<polygon class="st3" points="1371.21,472.75 1363.13,468.09 1371.21,463.42 1379.29,468.09 			"/>
			<polygon class="st3" points="1387.36,482.07 1379.29,477.41 1387.36,472.75 1395.44,477.41 			"/>
			<polygon class="st3" points="1403.51,491.4 1395.44,486.74 1403.51,482.07 1411.59,486.74 			"/>
		</g>
		<g>
			<polygon class="st5" points="1258.08,426.16 1250,421.5 1258.08,416.83 1266.16,421.5 			"/>
			<polygon class="st5" points="1274.23,435.48 1266.16,430.82 1274.23,426.16 1282.31,430.82 			"/>
			<polygon class="st4" points="1290.38,444.81 1282.31,440.15 1290.38,435.48 1298.46,440.15 			"/>
			<polygon class="st3" points="1306.54,454.14 1298.46,449.47 1306.54,444.81 1314.61,449.47 			"/>
			<polygon class="st3" points="1322.69,463.46 1314.61,458.8 1322.69,454.14 1330.76,458.8 			"/>
			<polygon class="st3" points="1338.84,472.79 1330.77,468.12 1338.84,463.46 1346.92,468.12 			"/>
			<polygon class="st5" points="1354.99,482.11 1346.92,477.45 1354.99,472.79 1363.07,477.45 			"/>
			<polygon class="st3" points="1371.15,491.44 1363.07,486.77 1371.15,482.11 1379.22,486.77 			"/>
			<polygon class="st3" points="1387.3,500.76 1379.22,496.1 1387.3,491.44 1395.37,496.1 			"/>
		</g>
		<g>
			<polygon class="st3" points="1241.86,435.52 1233.79,430.86 1241.86,426.2 1249.94,430.86 			"/>
			<polygon class="st3" points="1258.02,444.85 1249.94,440.18 1258.02,435.52 1266.09,440.18 			"/>
			<polygon class="st3" points="1274.17,454.17 1266.09,449.51 1274.17,444.85 1282.24,449.51 			"/>
			<polygon class="st3" points="1290.32,463.5 1282.24,458.84 1290.32,454.17 1298.4,458.84 			"/>
			<polygon class="st3" points="1306.47,472.82 1298.4,468.16 1306.47,463.5 1314.55,468.16 			"/>
			<polygon class="st3" points="1322.62,482.15 1314.55,477.49 1322.62,472.82 1330.7,477.49 			"/>
			<polygon class="st3" points="1338.78,491.47 1330.7,486.81 1338.78,482.15 1346.85,486.81 			"/>
			<polygon class="st3" points="1354.93,500.8 1346.85,496.14 1354.93,491.47 1363,496.14 			"/>
			<polygon class="st3" points="1371.08,510.13 1363,505.46 1371.08,500.8 1379.16,505.46 			"/>
		</g>
		<g>
			<polygon class="st3" points="1225.65,444.89 1217.57,440.22 1225.65,435.56 1233.72,440.22 			"/>
			<polygon class="st3" points="1241.8,454.21 1233.72,449.55 1241.8,444.89 1249.87,449.55 			"/>
			<polygon class="st5" points="1257.95,463.54 1249.87,458.87 1257.95,454.21 1266.03,458.87 			"/>
			<polygon class="st3" points="1274.1,472.86 1266.03,468.2 1274.1,463.54 1282.18,468.2 			"/>
			<polygon class="st4" points="1290.25,482.19 1282.18,477.52 1290.25,472.86 1298.33,477.52 			"/>
			<polygon class="st3" points="1306.41,491.51 1298.33,486.85 1306.41,482.19 1314.48,486.85 			"/>
			<polygon class="st3" points="1322.56,500.84 1314.48,496.17 1322.56,491.51 1330.63,496.18 			"/>
			<polygon class="st3" points="1338.71,510.16 1330.63,505.5 1338.71,500.84 1346.79,505.5 			"/>
			<polygon class="st3" points="1354.86,519.49 1346.79,514.83 1354.86,510.16 1362.94,514.83 			"/>
		</g>
		<g>
			<polygon class="st3" points="1209.43,454.25 1201.35,449.59 1209.43,444.92 1217.5,449.59 			"/>
			<polygon class="st3" points="1225.58,463.57 1217.5,458.91 1225.58,454.25 1233.66,458.91 			"/>
			<polygon class="st5" points="1241.73,472.9 1233.66,468.24 1241.73,463.57 1249.81,468.24 			"/>
			<polygon class="st3" points="1257.88,482.22 1249.81,477.56 1257.88,472.9 1265.96,477.56 			"/>
			<polygon class="st3" points="1274.04,491.55 1265.96,486.89 1274.04,482.22 1282.11,486.89 			"/>
			<polygon class="st4" points="1290.19,500.88 1282.11,496.21 1290.19,491.55 1298.26,496.21 			"/>
			<polygon class="st5" points="1306.34,510.2 1298.26,505.54 1306.34,500.88 1314.42,505.54 			"/>
			<polygon class="st3" points="1322.49,519.53 1314.42,514.86 1322.49,510.2 1330.57,514.86 			"/>
			<polygon class="st4" points="1338.64,528.85 1330.57,524.19 1338.64,519.53 1346.72,524.19 			"/>
		</g>
		<g>
			<polygon class="st3" points="1193.21,463.61 1185.13,458.95 1193.21,454.29 1201.29,458.95 			"/>
			<polygon class="st5" points="1209.36,472.94 1201.29,468.27 1209.36,463.61 1217.44,468.27 			"/>
			<polygon class="st3" points="1225.52,482.26 1217.44,477.6 1225.51,472.94 1233.59,477.6 			"/>
			<polygon class="st3" points="1241.67,491.59 1233.59,486.92 1241.67,482.26 1249.74,486.93 			"/>
			<polygon class="st3" points="1257.82,500.91 1249.74,496.25 1257.82,491.59 1265.89,496.25 			"/>
			<polygon class="st3" points="1273.97,510.24 1265.9,505.58 1273.97,500.91 1282.05,505.58 			"/>
			<polygon class="st3" points="1290.12,519.56 1282.05,514.9 1290.12,510.24 1298.2,514.9 			"/>
			<polygon class="st5" points="1306.28,528.89 1298.2,524.23 1306.28,519.56 1314.35,524.23 			"/>
			<polygon class="st3" points="1322.43,538.21 1314.35,533.55 1322.43,528.89 1330.5,533.55 			"/>
		</g>
		<g>
			<polygon class="st3" points="1176.99,472.97 1168.92,468.31 1176.99,463.65 1185.07,468.31 			"/>
			<polygon class="st4" points="1193.15,482.3 1185.07,477.64 1193.15,472.97 1201.22,477.64 			"/>
			<polygon class="st3" points="1209.3,491.63 1201.22,486.96 1209.3,482.3 1217.37,486.96 			"/>
			<polygon class="st3" points="1225.45,500.95 1217.37,496.29 1225.45,491.63 1233.53,496.29 			"/>
			<polygon class="st3" points="1241.6,510.28 1233.53,505.61 1241.6,500.95 1249.68,505.61 			"/>
			<polygon class="st3" points="1257.75,519.6 1249.68,514.94 1257.75,510.28 1265.83,514.94 			"/>
			<polygon class="st5" points="1273.91,528.93 1265.83,524.26 1273.91,519.6 1281.98,524.26 			"/>
			<polygon class="st3" points="1290.06,538.25 1281.98,533.59 1290.06,528.93 1298.13,533.59 			"/>
			<polygon class="st3" points="1306.21,547.58 1298.13,542.92 1306.21,538.25 1314.29,542.92 			"/>
		</g>
	</g>
</g>
<polygon class="st6" points="1727.94,131.09 1162,252.31 1301.95,330.2 1336.09,455.31 1412.75,391.88 1510.17,446.11 "/>
<g>
	<polygon class="st7" points="1374.48,416.03 1798.6,21.57 1411.43,310.06 	"/>
	<g>
		<linearGradient id="SVGID_2_" gradientUnits="userSpaceOnUse" x1="957.9934" y1="-103.9979" x2="1521.1808" y2="123.7367">
			<stop  offset="0" style="stop-color:#C0BFF6"/>
			<stop  offset="0.2938" style="stop-color:#C5C4F7"/>
			<stop  offset="0.6399" style="stop-color:#D3D2F9"/>
			<stop  offset="1" style="stop-color:#E9E9FD"/>
		</linearGradient>
		<polygon class="st8" points="1798.6,21.57 1337.53,263.82 1186.06,169.05 		"/>
		<linearGradient id="SVGID_3_" gradientUnits="userSpaceOnUse" x1="1774.6532" y1="548.3812" x2="1599.0605" y2="152.382">
			<stop  offset="0" style="stop-color:#C0BFF6"/>
			<stop  offset="0.2938" style="stop-color:#C5C4F7"/>
			<stop  offset="0.6399" style="stop-color:#D3D2F9"/>
			<stop  offset="1" style="stop-color:#E9E9FD"/>
		</linearGradient>
		<polygon class="st9" points="1798.6,21.57 1411.43,310.06 1562.9,404.83 		"/>
		<linearGradient id="SVGID_4_" gradientUnits="userSpaceOnUse" x1="1476.6935" y1="171.9713" x2="1891.5896" y2="348.8384">
			<stop  offset="0" style="stop-color:#C0BFF6"/>
			<stop  offset="0.2938" style="stop-color:#C5C4F7"/>
			<stop  offset="0.6399" style="stop-color:#D3D2F9"/>
			<stop  offset="1" style="stop-color:#E9E9FD"/>
		</linearGradient>
		<polygon class="st10" points="1411.43,310.06 1798.6,21.57 1337.53,263.82 1374.48,416.03 		"/>
	</g>
	<polygon class="st11" points="1330.79,259.6 1798.6,21.57 1337.53,263.82 	"/>
	<polygon class="st11" points="1411.43,310.06 1798.6,21.57 1417.49,313.85 	"/>
</g>
<ellipse class="st1" cx="1526.74" cy="309.28" rx="54.91" ry="31.7"/>
<g>
	<path class="st12" d="M1498.32,244.33c0,0-0.98,2.96-0.9,3.66c0.09,0.71,2.12,3.51,2.26,3.59c0.14,0.09,1.86,2.28,3.79,3.34
		c1.93,1.05,2.08,1.58,2.26,1.6c0.18,0.02,0.47-0.16,0.47-0.16s0.29-2.02-0.56-3c-0.85-0.98,0.42-2.43,0.42-2.43l-2.19-5.71
		L1498.32,244.33z"/>
	<path class="st13" d="M1519.31,307.52c0,0-3.43,0.8-6.74,0.91c-3.31,0.11-12.34,1.82-12.16,5.05c0.18,3.25,4.8,7.91,10.66,8.61
		c5.86,0.7,13.44-0.9,17.26-0.79c3.82,0.11,6.52-3.64,5.1-7.25C1532.02,310.46,1519.31,307.52,1519.31,307.52z"/>
	<path class="st13" d="M1539.3,298.9c0,0,1.21,1.96,0.57,3.16c-0.64,1.2-2.35,4.18-7.66,1.27c-5.29-2.9-15.56-7.08-15.56-7.08
		s-5.89-3.09-5.5-6.7c0.39-3.6,5.86-3.03,5.86-3.03L1539.3,298.9z"/>
	<path class="st12" d="M1480.28,169.08c0,0-3.5,0.05-5.04-0.65c-1.54-0.7-6.02-2.17-6.3-2.31c-0.28-0.15-2.75-0.31-3.88-1.03
		c0,0-1.26,0.62-0.27,1.64c1,1.02,2.88,1.35,2.88,1.35l1.77,1.03c0,0-3.59,1.84-3.92,1.98c-0.32,0.14-3.33,2.43-3.64,2.57
		c-0.3,0.14-1.65,1.19-1.13,2.11c0,0,0.05,0.21,0.72,0.35c0,0-1.92,0.87-1.45,1.82c0.47,0.95,1.69,0.54,1.69,0.54
		s0.46,1.7,2.78,0.38c0,0,0.27,2.11,5.42-0.09c0,0,2.08-0.55,3.6-0.44c1.52,0.11,5.67-0.96,7.89-2.53
		C1483.66,174.23,1480.28,169.08,1480.28,169.08z"/>
	<path class="st14" d="M1473.55,178.32c1.52,0.11,5.67-0.96,7.89-2.53c1.49-1.05,0.45-3.73-0.39-5.37
		c-1.05-0.51-1.97-0.93-1.97-0.93s0.16,5.1,0.04,5.87c-0.12,0.77-4.72,1.68-7.68,2.11c-2.96,0.43-6.84,1.58-6.84,1.58
		c0.23,0.47,1.22,1.48,5.35-0.29C1469.95,178.76,1472.03,178.21,1473.55,178.32z"/>
	<path class="st15" d="M1520.8,159.16c0,0-7.28,1.27-9.76,2.06c-2.4,0.77-23.27,4.9-30.91,6.77c-0.48,0.12-0.86,0.51-0.97,1.01
		c-0.09,0.4-0.15,0.88-0.05,1.27c0.21,0.86,0.95,9.5,5.19,8.09c1.27-0.42,5.01-1.2,8-1.6c2.99-0.39,15.74-1.37,15.74-1.37
		l21.57-12.35L1520.8,159.16z"/>
	<path class="st7" d="M1505.17,247.07c0,0,1.93,23.81,6.67,32.8c4.8,9.09,5.86,25.62,6.83,28.76c0.97,3.16,4.08,7.69,9.08,8.66
		c5,0.97,5.89-2.32,5.69-4.3c-0.2-1.97-1.53-5.18-1.5-7.32c0.03-2.14,0.56-3.14,0.66-4.12c0,0,5.72,1.66,6.7-2.65
		c0,0-0.44-1.26-0.5-1.9c-0.06-0.64,0.87-16.34,1.05-18.25c0.18-1.9-0.64-12.24-2.13-17.36c-1.49-5.09-0.71-15.91-0.71-15.91
		l-16.56-2.42L1505.17,247.07z"/>
	<path class="st13" d="M1532.06,247.16c0,0-0.15,3.72-1.8,6.83c0,0-0.23,12.61-1.69,18.97c0,0,1.87,12.74,3.12,16.75
		c1.26,4.03,0.91,11.84,0.91,11.84s0.65,0.24,1.59,0.28s1.35-15.46-0.04-18.21c-1.38-2.74-2.22-14.92-1.59-18.64
		c0.62-3.7,0.66-14.33,1.43-16.2c0.76-1.87-0.84-2.88-0.84-2.88L1532.06,247.16z"/>
	<path class="st13" d="M1519.69,159.36c0,0-4.98,3.45-4.84,9.55l3.66-0.72C1518.52,168.19,1517.56,161.43,1519.69,159.36z"/>
	<path class="st13" d="M1519.86,252.25c10.99,0.42,17.02-4.28,17.02-4.28c0.06-1.51,0.13-2.49,0.13-2.49l-16.56-2.42l-15.27,4
		c0,0,0.38,4.71,1.23,10.74c2.7,0.31,5.46-6.14,5.46-6.14l7.55,0.53C1519.41,252.2,1508.85,251.83,1519.86,252.25z"/>
	<path class="st16" d="M1507.3,247.44c0,0,23.76,9.74,35.71-8.25c0.34-0.51,0.51-1.14,0.5-1.78l-0.05-4.24
		c-0.01-0.54,0.09-1.07,0.27-1.57l0,0c0.4-1.07,0.51-2.24,0.32-3.39c-0.79-4.76-2.92-17.75-3.41-21.37
		c-0.6-4.42,2.18-22.11,6.37-29.77c4.14-7.56-5.64-24.96-5.64-24.96s-2.42-4.09-7.36-2.78c0,0,4.62,3.35,1.98,6.75
		c-2.65,3.42-10.4,6.06-10.4,6.06s-14.37,7.11-19.39,15.94c0,0-1.75,4.59-1.98,10.42c-0.24,5.88,0.2,19.95-0.08,21.89
		c-0.28,1.95-1.24,15.24-1.17,15.86C1503.03,226.88,1507.3,247.44,1507.3,247.44z"/>
	<path class="st7" d="M1514.54,249.46c0,0,14.87-37.31,14.48-51.04c-0.39-13.46-21.25,26.82-21.25,26.82l-0.47,22.2
		C1507.3,247.44,1511.8,249.11,1514.54,249.46z"/>
	<path class="st15" d="M1507.64,205.03c0.57-3.09,0.92-6.19,1.01-9.3c0.15-5.41,1.85-14.4,11.76-12.69
		c13.97,2.41,7.59,21.67,5.99,25.02c-1.61,3.36-7.99,18.48-8.33,19.34c-0.32,0.81-10.26,19.55-13.76,24.01
		c-0.32,0.41-0.87,0.47-1.25,0.14c-1.37-1.17-4.46-3.95-4.84-5.69c-0.49-2.25,1.64-10.38,1.64-10.38s5.75-20.42,6.23-21.37
		C1506.43,213.4,1506.72,210.02,1507.64,205.03z"/>
	<path class="st12" d="M1519.93,159.81c0,0-1.07-2.55-3.66-2.86c-2.59-0.31-4.04-1.04-4.29-2c-0.24-0.96-0.24-2.11-0.84-3.55
		c-0.6-1.43-1.08-4.93-1.07-5.02c0.01-0.08-1.95-0.71-2.04-1.58c-0.08-0.87,0.99-3.94,0.88-4.18c-0.11-0.24-1.14-2.16-0.97-3.63
		c0.17-1.47,0.39-3.61,1.21-5.4c0.82-1.79,6.53-12.72,20.79-6.75c14.35,6,3.09,17.91,4.36,25.77c0,0,1.25,1.67-1.16,4.42
		C1530.72,157.79,1523.89,158.29,1519.93,159.81z"/>
	<path class="st14" d="M1533.14,155.02c2.41-2.75,1.16-4.42,1.16-4.42c-0.17-1.09-0.1-2.26,0.1-3.48l-5.67,0.98
		c0,0-8.21-7.56-7.69-3.57c0.52,4.01-1.52,4.66-1.52,4.66l1.67,2.2c0.43,0.56,0.16,1.22-0.21,1.82c-2.46,4.03-8.22,2.71-8.23,2.71
		c0.71,0.48,1.89,0.84,3.51,1.03c2.59,0.3,3.66,2.86,3.66,2.86C1523.89,158.29,1530.72,157.79,1533.14,155.02z"/>
	<g>
		<path class="st17" d="M1508.61,127.39c0,0-1.05,2.93,0.55,4.2c1.61,1.27,3.06,2.47,3.06,2.47l-0.07,3.73
			c-0.01,0.54,0.14,1.07,0.42,1.52l1.99,3.18c0.38,0.61,0.58,1.33,0.58,2.06l-0.02,1.52c-0.01,0.45,0.32,0.82,0.75,0.88l0.53,0.07
			c0.47,0.06,0.9-0.28,0.96-0.76l0.26-2.1c0,0,1.1-1.68,3.42,0.38l2.09,0.9c0.58,0.25,1.04,0.74,1.25,1.35
			c0.56,1.63,1.76,4.85,2.69,5.39c1.26,0.74,6.25-1.72,6.93-2.83c0.68-1.11,2.51-8.59,3.62-12.16c1.1-3.55,0.7-12.41-9.94-14.88
			C1517.08,119.82,1510.13,124.21,1508.61,127.39z"/>
		<path class="st18" d="M1534.01,149.33c0.68-1.11,2.51-8.59,3.62-12.16c0,0-4.18,2.67-9.54,3.38c-5.37,0.72-15.89-5.5-15.89-5.5
			l-0.05,2.73c-0.01,0.54,0.14,1.07,0.42,1.52l1.99,3.18c0.38,0.61,0.58,1.33,0.58,2.06l-0.02,1.52c-0.01,0.45,0.32,0.82,0.75,0.88
			l0.53,0.07c0.47,0.06,0.9-0.28,0.96-0.76l0.26-2.1c0,0,1.1-1.68,3.42,0.38l3.03,1.3c0,0,1.75,5.6,3.01,6.34
			C1528.34,152.91,1533.33,150.45,1534.01,149.33z"/>
	</g>
	<path class="st19" d="M1534.21,149.69c0,0,4.07,2.6,1.94,6.16c-2.15,3.58-17.23,9.74-17.98,10.68c0,0-0.49-5.38,1.52-7.17
		c0,0,11.5-2.03,13.34-4.91C1534.87,151.58,1534.21,149.69,1534.21,149.69z"/>
	<path class="st20" d="M1534.21,149.69c0,0,0.66,1.89-1.18,4.75c-1.39,2.18-8.31,3.87-11.6,4.57l0,0c0,0,1.2,0.71,3.17,4.18
		c4.65-2.3,10.29-5.26,11.54-7.35C1538.29,152.3,1534.21,149.69,1534.21,149.69z"/>
	<path class="st7" d="M1526.49,186.18c3.64,11.74-6.41,29.68-7.9,34.91c-1.5,5.28-16.61,29.51-16.61,29.52
		c0.41,0.37,0.78,0.7,1.07,0.95c0.38,0.32,0.93,0.27,1.25-0.14c3.5-4.47,13.44-23.21,13.76-24.01c0.34-0.86,6.72-15.98,8.33-19.34
		C1527.67,205.38,1532.04,192.4,1526.49,186.18z"/>
	<path class="st7" d="M1536.75,161.23c0,0-6.73,3.68-10.01,5.34c-3.29,1.67-6.88,3.89-6.88,3.89l-1.22-1.25l-1.55,3.24
		c0,0-5.17,2.97-7.6,5.46c-2.45,2.51-4.31,5.8-4.58,6.55c0,0,6.52-8.19,11.59-10.57l1.36-0.66l0.81-2.57l1.21,1.31
		C1519.89,171.97,1534.68,163.45,1536.75,161.23z"/>
</g>
<ellipse class="st1" cx="1322.09" cy="185.79" rx="42.96" ry="24.8"/>
<g>
	<g>
		<path class="st12" d="M1348.29,112.69c0,0,2.32,0.4,3.17-0.04c0.85-0.43,3.07-0.73,5.64,0.19c2.57,0.92,2.36,0.78,3.37,0.88
			c1.02,0.1,2.66,0.2,3.2,0.54c0.54,0.34,1.56,0.99,0.61,2.33c-0.95,1.35-4.48,0.08-5.05-0.03c-0.57-0.11-1.21,0.91-0.92,1.83
			c0.29,0.92,5.61,6.74,6.45,7.32c0.84,0.58,4.44,2.99,4.59,3.94c0.16,0.95-0.04,1.09-0.04,1.09s1.05,0.95,0.68,1.83
			c-0.37,0.88-2.01-0.47-2.31-0.27c0,0,0.27,0.98-0.13,1.16c-0.4,0.18-2.74-0.73-3.02-1.01c0,0-0.27,0.75-1.61-0.03
			c-1.33-0.78-6.44-3.68-7.04-4.23c-0.6-0.55-2.61-2.41-3.44-2.91c-0.83-0.5-2.26-2.19-2.97-2.86c-0.71-0.67-3.88-2.27-5.09-2.5
			C1343.17,119.71,1348.29,112.69,1348.29,112.69z"/>
		<path class="st14" d="M1352.36,123.22c-1.17-2.14-5.11-3.8-5.11-3.8c0.27-1.74,2.77-6.56,2.77-6.56l0,0
			c-0.87-0.02-1.74-0.16-1.74-0.16s-5.12,7.02-3.91,7.25c1.21,0.23,4.38,1.84,5.09,2.5c0.71,0.67,2.14,2.36,2.97,2.86
			c0.83,0.5,2.84,2.36,3.44,2.91c0.6,0.55,5.71,3.45,7.04,4.23c1.33,0.78,1.61,0.03,1.61,0.03c0.28,0.28,2.62,1.19,3.02,1.01
			c0.4-0.18,0.13-1.16,0.13-1.16s-1.64-0.93-3.33-1.53C1362.66,130.19,1353.54,125.37,1352.36,123.22z"/>
		<path class="st12" d="M1344.47,104.96c0,0,0.5,2.62,0.32,4.75c-0.18,2.14-4.47-0.66-4.31-1.03c0.16-0.37,2.03-3.59,2.03-3.59
			L1344.47,104.96z"/>
		<path class="st7" d="M1325.78,40.55c0,0,2.38-0.11,5.27,4.64c2.78,4.57,7.68,20.93,10.25,27.21c0.23,0.56,0.4,1.13,0.5,1.73
			c0.83,4.9,4.75,27.93,4.92,30.7c0,0-2.98,1.98-4.9,2.47l-4.21-1.4l-4.15-41.75l-6.72-22.05L1325.78,40.55z"/>
		<path class="st13" d="M1312.32,177.93c0,0-0.8,3.86-0.36,4.61c0.44,0.75,5.46,6.42,5.99,7.19c0.53,0.76,3.12,5.41,7.88,6.54
			c4.77,1.14,8.01,0.84,8.65-1.4c0.64-2.23-2.15-5.94-3.45-7.13c-1.29-1.19-6.73-7.67-7.72-8.6c-0.99-0.94-2.43-1.08-2.43-1.08
			l-6.2,1.08L1312.32,177.93z"/>
		<path class="st13" d="M1331.57,166.37c0,0,4.75,1.84,7.23,2.47c2.48,0.63,8.4,5.05,8.34,7.27c-0.07,2.23-2.98,3.77-5.94,3.54
			c-2.96-0.22-6.48-2.11-7.05-2.61c-0.57-0.5-2.6-1.61-5.03-2.37c-2.42-0.75-6.33-1.12-6.97-2.42c-0.64-1.29-0.74-3.96-0.74-3.96
			L1331.57,166.37z"/>
		<path class="st7" d="M1320.84,165.57c0.04-0.23,0.2-0.61,0.23-0.77c0.22-1.18,0.01-5.95,0.01-5.95l-1.05,1.43
			c0,0,0.74,4.78,2.17,12.26c0.36,1.9,1.36,3.85,1.5,4.93c0.44,3.2-1.46,3.83-1.46,3.83c-3.86,2.9-7.16,1.15-8.34,0.22
			c-1.18-0.93-1.59-2.43-3.23-7.82c-1.63-5.35-3.05-16.65-2.7-19.34c0.31-2.37,1.17-8.99,1.13-13.54
			c-0.04-4.52-3.52-18.98-3.52-18.98l14.39-2.79l9.82-5.09l7.49,1.13c0,0,0.95-3.17,1.94,6.69c1,10-5.05,27.68-5.05,27.68
			c-1.6,8.76-2,18.83-2.91,20.19c-0.91,1.37-4.49,4.59-7.8,2.08c-0.61-0.46-1.3-0.94-1.67-1.44L1320.84,165.57z"/>
		<path class="st13" d="M1320.04,160.28c0,0,4.73-12.88,6.97-25.36c2.2-12.27,6.02-13.99,7.61-16.19c0,0,2.39,1.1,3.66,1.31
			c0.15,0.03,0.29,0.04,0.41,0.04c1.05-0.03-5.29,7.86-6.43,9.89c-1.14,2.03-7.7,19.41-8.16,21.81c-0.46,2.41-0.92,19.17-0.39,20.13
			c0.53,0.96-1.82-0.73-1.82-0.73S1320.44,167.47,1320.04,160.28z"/>
		<path class="st13" d="M1332.32,114.32l-2.53-0.38l-9.82,5.09l-14.39,2.79c0,0,3.48,14.46,3.52,18.98
			c0.04,4.55-0.82,11.17-1.13,13.54c-0.35,2.66,1.07,13.99,2.7,19.34c0.71,2.33,1.19,3.94,1.6,5.09c0.65,3.04,2.95,3.53,2.95,3.53
			s-5.64-17.47-5.15-27.69c0.49-10.07,1.93-18.46,1.67-20.41c0,0,16.38-5.04,19.45-15.61
			C1331.68,116.95,1332.04,115.53,1332.32,114.32z"/>
		<path class="st16" d="M1303.94,42.8c0,0-1.16,0.98-1.42,1.98c-0.25,1-1.69,4.55-1.69,4.55s-6.85,9.09-8.08,11.87
			c-1.24,2.8-1.64,4.88-1.64,4.88l18.14,22.34c0,0-6.35,21.9-4.58,29.88c1.79,8.08,4.13,11.09,6.98,11.96
			c2.86,0.87,18.12-5.4,19.17-13.4c1.04-7.91,0.62-8.91,0.62-8.91s7.12,1.9,7.57,0.08c0.44-1.81-0.9-14.87-1.26-16.73
			c-0.37-1.86-1.46-22.45-1.46-22.45s-4.34-19-4.59-19.93c-0.25-0.93-2.94-8.07-6.41-8.47c-3.47-0.4-7.79,5.11-7.79,5.11
			L1303.94,42.8z"/>
		<path class="st19" d="M1304.75,42.11c0,0-0.72,0.48-0.87,1.27c-0.15,0.79-0.74,2.35,0.55,3.99c1.29,1.64,11.74,10.16,15.97,17.33
			c4.27,7.24,9.56,15.32,10.01,17c0,0,1.93-11.47,0.18-16.74c-1.73-5.24-7.27-15.9-8.44-16.7c-1.17-0.79-8.36-1.47-8.36-1.47
			L1304.75,42.11z"/>
		<path class="st20" d="M1315.54,53.64c0,0-0.57,0.93-0.73,1.66c0,0-3.03-1.55-4.3-2.12l4.66,3.24c0,0,0.27-1.69,0.51-1.95
			c0,0,2.66,2.03,3.03,2.93c0.38,0.9,5.29,13.25,5.29,13.25l2.58,4.22l0.67-1.02l-4.22-11.5c0,0-2.38-3.62-2.41-3.71
			c-0.03-0.08-1.64-3.97-1.64-3.97L1315.54,53.64z"/>
		<path class="st13" d="M1315.54,53.64c0,0,1.55-2.89,4.54-2.78c0,0,0.86,3.56,1.1,5.01c0,0-1.93,0.83-2.71,0.16
			C1317.7,55.36,1315.54,53.64,1315.54,53.64z"/>
		<path class="st13" d="M1320.73,55.1c0,0,7.69,9.48,10.37,20.93l-0.56,5.9l-4.05-7.21c0,0-6.63-16.56-8.17-19.59
			C1316.8,52.12,1320.73,55.1,1320.73,55.1z"/>
		<path class="st7" d="M1307.99,93.13c-0.51,2.03-1.12,4.54-1.69,7.24c0.01,0.01,11.38,14.86,22.49,20.91
			c1.08-1.38,1.83-2.87,2.03-4.42c0.55-4.18,0.69-6.43,0.7-7.62l-12.92-9.8L1307.99,93.13z"/>
		<path class="st7" d="M1307.21,71.31c0,0,3.29,4.49,4.17,4.9c0.88,0.41,7.99,12.88,9.43,15.23c1.45,2.36,5.28,5.66,5.28,5.66
			l-3.62,0.35l-14.18-19.02L1307.21,71.31z"/>
		<path class="st15" d="M1309.23,75.27c-1.43-3.59-3.66-6.75-6.54-9.15c-3.27-2.74-7.56-5.41-9.84-3.01
			c-3.99,4.22-2.29,12.17,3.26,19.62c5.61,7.53,14.46,18.24,16.55,20.04c2.01,1.73,19.17,14.64,29,19.46
			c0.73,0.36,1.59,0.08,2.02-0.64c1.36-2.24,4.17-6.91,5.18-8.83c0.2-0.39,0.08-0.89-0.28-1.12c-3.6-2.31-21.55-13.86-26.87-17.44
			c-0.81-0.55-1.48-1.3-1.94-2.2c-1.56-3.03-5.55-10.5-9.07-14.31c-0.63-0.68-1.11-1.49-1.45-2.36
			C1309.24,75.32,1309.23,75.29,1309.23,75.27z"/>
		<path class="st7" d="M1322.43,44.5l6.28,6.35l-1.62,0.56l2.07,1.2c0,0,5.03,11.87,3.93,25.32c0,0,2.49-10.57-2.91-25.56
			l-1.67-0.85l1.13-0.36L1322.43,44.5z"/>
		<path class="st12" d="M1304.62,41.04c0.11,0.25,0.18,0.51,0.15,0.79c-0.05,0.56-0.11,1.51-0.06,1.92
			c0.08,0.6,4.01,7.23,12.06,7.29c0,0,0.97-1.44,1.16-1.72c0,0,3.26-0.15,4.61-1.34c1.35-1.19,0.52-3.26,0.52-3.26l0.2-2.49
			c0.02-0.3,0.16-0.58,0.37-0.79c0.29-0.27,0.66-0.67,0.73-0.96c0.07-0.3-0.12-0.81-0.28-1.16c-0.11-0.24-0.15-0.5-0.12-0.76
			c0.07-0.63,0.13-1.97-0.31-3.63c-0.13-0.48-0.13-0.99-0.01-1.47c0.2-0.79,0.48-1.96,0.52-2.38c0.05-0.65-1.05-2.38-1.1-3.07
			c-0.05-0.68-1-2.99-1-2.99s-5.98-11.11-15.64-6.3c-9.73,4.85-4.66,15.24-3.46,18.19c0,0,1.16,2.4,1.37,2.93
			C1304.51,40.27,1304.38,40.52,1304.62,41.04z"/>
		<path class="st17" d="M1322.92,26.17c0.08,0.79-0.21,1.56-0.81,2.09c-1.17,1.03-3.5,2.73-6.58,3.14c-2.17,0.29-3.35,0.4-4,0.43
			c-0.43,0.02-0.78,0.37-0.8,0.81c-0.04,0.81-0.12,2.04-0.24,2.86c-0.05,0.33-0.14,0.65-0.29,0.95l-0.69,1.45
			c-0.17,0.36-0.54,0.58-0.93,0.55l-0.16-0.01c-0.44-0.03-0.79-0.37-0.85-0.81l-0.01-0.06c-0.15-1.14-0.82-2.16-1.84-2.64
			c-0.51-0.24-1.1-0.35-1.68-0.11c-1.67,0.68-0.97,2.3-0.97,2.3s-2.02-2.43-2.93-5.66c-0.91-3.22-0.7-9.03,3.51-12.07
			c4.19-3.03,9.65-4.25,14.32-0.97C1321.83,21.15,1322.73,24.41,1322.92,26.17z"/>
		<path class="st14" d="M1307,39.79c-0.21-0.26,0.06,1.96-2.22,2.03c-0.05,0.56-0.11,1.51-0.06,1.92c0.08,0.6,4.01,7.23,12.06,7.29
			c0,0,0.97-1.44,1.16-1.72c0,0-7.39-3.59-8.7-5.22C1307.93,42.47,1307.21,40.05,1307,39.79z"/>
		<path class="st20" d="M1320.08,50.86c0,0,2.19,0.25,3.21,0.8c0,0,0.29-1.14-0.29-2.36c0,0,0.66,0.53,0.65,3.14
			c0,0-3.22-1.04-3.46-1.11L1320.08,50.86z"/>
		<path class="st7" d="M1344.55,119.84c0,0-18.63-10.71-24.95-14.98c-6.27-4.24-23.93-22.25-27.54-29.19
			c0.93,2.32,2.29,4.71,4.04,7.06c5.61,7.53,14.46,18.24,16.55,20.04c2.01,1.73,19.17,14.64,29,19.46c0.73,0.36,1.59,0.08,2.02-0.64
			c0.26-0.43,0.58-0.96,0.93-1.54C1344.58,119.92,1344.55,119.84,1344.55,119.84z"/>
		<path class="st7" d="M1301.7,49.89l8.51,12.11l2.19-0.78l0.12,2.31c0,0,10.19,7.59,17.81,23.35c0,0-10.08-16.24-18.11-21.64
			l-0.73-2.32l-1.71,0.39L1301.7,49.89z"/>
		<path class="st18" d="M1300.93,33.05c-0.09-0.03-0.18-0.06-0.27-0.08c1,2.46,2.42,4.17,2.42,4.17s-0.69-1.62,0.97-2.3
			c0.58-0.24,1.17-0.13,1.68,0.11c1.02,0.48,1.69,1.5,1.84,2.64l0.01,0.06c0.06,0.44,0.41,0.78,0.85,0.81l0.16,0.01
			c0.39,0.03,0.76-0.19,0.93-0.55l0.69-1.45c0.14-0.3,0.24-0.62,0.29-0.95c0.11-0.83,0.2-2.05,0.24-2.86
			C1310.74,32.65,1305.06,34.48,1300.93,33.05z"/>
	</g>
</g>
</svg>
